<?xml version="1.0" standalone="no"?>
<!DOCTYPE svg PUBLIC "-//W3C//DTD SVG 20010904//EN"
 "http://www.w3.org/TR/2001/REC-SVG-20010904/DTD/svg10.dtd">
<svg version="1.0" xmlns="http://www.w3.org/2000/svg"
 width="700.000000pt" height="700.000000pt" viewBox="0 0 700.000000 700.000000"
 preserveAspectRatio="xMidYMid meet">
<metadata>
Created by potrace 1.11, written by Peter Selinger 2001-2013
</metadata>
<g transform="translate(0.000000,700.000000) scale(0.100000,-0.100000)"
fill="#000000" stroke="none">
<path d="M2610 3840 l0 -1601 583 3 582 4 88 27 c208 65 351 173 453 344 93
157 133 323 134 553 0 389 -142 624 -437 724 -76 26 -89 41 -41 50 165 31 329
211 383 421 29 110 40 274 27 388 -24 218 -76 341 -192 457 -106 107 -210 158
-410 202 -88 19 -135 21 -632 25 l-538 5 0 -1602z m932 1069 c106 -22 176 -76
212 -164 35 -82 38 -285 6 -391 -26 -87 -102 -162 -187 -183 -23 -6 -121 -11
-217 -11 l-176 0 0 380 0 380 155 0 c84 0 178 -5 207 -11z m43 -1273 c120 -31
182 -92 226 -217 18 -53 22 -86 23 -194 0 -198 -42 -322 -133 -392 -68 -52
-123 -64 -333 -70 l-188 -6 0 447 0 446 178 0 c116 0 194 -5 227 -14z"/>
<path d="M2610 1540 l0 -240 935 0 935 0 0 240 0 240 -935 0 -935 0 0 -240z"/>
</g>
</svg>
