<svg width="800" height="273" viewBox="0 0 800 273" fill="none" xmlns="http://www.w3.org/2000/svg">
    <g transform="scale(2.3) translate(-60,22)">
    <path fill="#B3B3B3" d="M102.166 1.093h2.823v2.822h-2.823zm5.613 0h2.824v2.822h-2.824zM96.513 1.08h2.823v2.824h-2.823z"/>
    <path fill="#0A72B9" d="M96.504 3.904h-2.823V1.113h-2.824v2.791h-2.823V1.113h-2.832v2.791h-2.823V1.113H68.271V85.83h28.237z"/>
    <path fill="black" d="M132.474 4.393a7.707 7.707 0 00-3.02-.637c-1.019 0-2.336.447-2.336 2.061 0 2.571 6.503 1.488 6.503 6.461 0 3.253-2.572 4.483-5.568 4.483-1.615 0-2.338-.211-3.804-.572l.276-2.678c1.019.552 2.189.914 3.358.914 1.127 0 2.635-.575 2.635-1.915 0-2.825-6.502-1.656-6.502-6.565 0-3.314 2.571-4.527 5.184-4.527 1.279 0 2.465.17 3.551.53l-.277 2.445zm5.376 3.252h-2.105V5.562h2.105V3.374l2.847-.914v3.102h2.528v2.082h-2.528v5.1c0 .937.255 1.809 1.341 1.809.509 0 .998-.107 1.294-.301l.087 2.255c-.596.17-1.254.254-2.105.254-2.231 0-3.464-1.381-3.464-3.549V7.645zm10.201 5.696c0-1.679 1.891-1.891 3.169-1.891h1.228c0 .851-.127 1.636-.591 2.253-.449.596-1.127.978-1.998.978-1.023-.001-1.808-.405-1.808-1.34zm-1.447-4.76c.958-.724 2.17-1.192 3.382-1.192 1.677 0 2.462.596 2.462 2.359h-1.57c-1.192 0-2.592.107-3.678.637-1.081.532-1.87 1.488-1.87 3.126 0 2.081 1.891 3.25 3.826 3.25 1.295 0 2.721-.679 3.379-1.892h.045c.021.341.021 1.065.128 1.638h2.507a44.573 44.573 0 01-.127-2.444c-.021-.81-.046-1.636-.046-2.74V9.919c0-3.23-1.381-4.612-4.718-4.612-1.208 0-2.696.32-3.802.83l.082 2.444zm14.368 2.421c0-1.465.509-3.485 2.358-3.485 1.83 0 2.552 1.957 2.552 3.485 0 1.554-.617 3.551-2.511 3.551-1.869 0-2.399-2.043-2.399-3.551zm5.014 5.506h2.766V.567h-2.849v6.272h-.045c-.846-1.043-1.845-1.532-3.272-1.532-3.357 0-4.59 2.679-4.59 5.696 0 2.995 1.233 5.759 4.59 5.759 1.34 0 2.508-.425 3.359-1.488h.04v1.234zm7.484-8.863h-2.105V5.562h2.105V3.374l2.849-.914v3.102h2.528v2.082h-2.528v5.1c0 .937.255 1.809 1.335 1.809.51 0 .999-.107 1.3-.301l.081 2.255c-.591.17-1.253.254-2.103.254-2.228 0-3.461-1.381-3.461-3.549V7.645zm-48.966 11.913h2.975v12.496h5.759v2.339h-8.735V19.558zm21.274 14.835h-2.7v-1.488h-.041c-.871 1.062-2.103 1.743-3.591 1.743-2.593 0-3.719-1.827-3.719-4.293v-6.906h2.847v5.844c0 1.337.021 3.146 1.85 3.146 2.059 0 2.507-2.232 2.507-3.635v-5.355h2.849v10.944zm3.313-10.944h8.671v2.336l-5.441 6.396h5.635v2.212h-9.095v-2.316l5.544-6.42h-5.314v-2.208zm13.965 4.399c.127-1.467.933-2.572 2.528-2.572s2.232 1.192 2.317 2.572h-4.845zm6.756 3.613c-1.06.593-2.252 1.105-3.632 1.105-1.764 0-2.997-1-3.124-2.764h7.566c0-3.824-1.15-6.61-5.207-6.61-3.402 0-5.079 2.616-5.079 5.783 0 3.591 2.103 5.674 5.716 5.674 1.529 0 2.722-.299 3.76-.872v-2.316zm3.954-8.012h2.528v2.485h.045c.128-1.021 1.295-2.743 2.997-2.743.275 0 .571 0 .871.086v2.87c-.255-.148-.764-.235-1.274-.235-2.317 0-2.317 2.892-2.317 4.463v4.018h-2.849V23.449zm9.055 0h2.699v1.488h.041c.892-1.256 2.105-1.745 3.592-1.745 2.594 0 3.719 1.828 3.719 4.295v6.906h-2.848v-5.844c0-1.34-.02-3.146-1.849-3.146-2.063 0-2.508 2.232-2.508 3.635v5.355h-2.847V23.449z"/>
    </g>

    <path transform="translate(170,0)" d="M208.388 155.406L214.931 142.418L236.415 105.211H263.954L236.415 149.84L265.81 214H238.564L218.935 168.004L208.779 177.184V214H182.802V62.0469H208.779V133.629L207.607 155.406H208.388ZM303.31 214H277.333V105.211H303.31V214ZM276.259 76.793C276.259 72.4961 277.496 69.1107 279.97 66.6367C282.509 64.0977 286.025 62.8281 290.517 62.8281C294.749 62.8281 298.134 64.0977 300.673 66.6367C303.212 69.1107 304.482 72.4961 304.482 76.793C304.482 81.2201 303.18 84.6706 300.575 87.1445C297.971 89.5534 294.618 90.7578 290.517 90.7578C286.22 90.7578 282.769 89.5534 280.165 87.1445C277.561 84.6706 276.259 81.2201 276.259 76.793ZM507.509 159.41C507.509 177.249 503.733 191.148 496.181 201.109C488.629 211.005 478.277 215.953 465.126 215.953C456.793 215.953 449.436 213.674 443.056 209.117C436.676 204.56 431.76 198.017 428.31 189.488C424.859 180.895 423.134 170.868 423.134 159.41C423.134 141.767 426.877 127.997 434.364 118.102C441.851 108.141 452.236 103.16 465.517 103.16C478.342 103.16 488.531 108.238 496.083 118.395C503.7 128.486 507.509 142.158 507.509 159.41ZM449.697 159.41C449.697 170.738 450.933 179.299 453.407 185.094C455.881 190.888 459.853 193.785 465.322 193.785C475.738 193.785 480.947 182.327 480.947 159.41C480.947 148.017 479.677 139.521 477.138 133.922C474.664 128.258 470.725 125.426 465.322 125.426C459.853 125.426 455.881 128.258 453.407 133.922C450.933 139.521 449.697 148.017 449.697 159.41ZM579.97 214V149.156C579.97 141.279 579.026 135.322 577.138 131.285C575.25 127.249 572.19 125.23 567.958 125.23C562.359 125.23 558.258 128.03 555.654 133.629C553.049 139.163 551.747 148.538 551.747 161.754V214H525.771V105.211H546.376L549.501 119.176H551.161C553.505 114.163 556.858 110.257 561.22 107.457C565.582 104.592 570.693 103.16 576.552 103.16C586.448 103.16 593.837 106.546 598.72 113.316C603.668 120.087 606.142 129.983 606.142 143.004V214H579.97Z" fill="#231F20"/>
    <path transform="translate(170,0)" d="M327.138 71.2266H363.564C378.407 71.2266 389.215 74.1237 395.986 79.918C402.756 85.6471 406.142 94.7943 406.142 107.359C406.142 115.628 404.351 122.561 400.771 128.16C397.19 133.694 392.307 137.047 386.122 138.219V139.195C394.195 141.214 400.022 144.99 403.603 150.523C407.183 156.057 408.974 163.414 408.974 172.594C408.974 185.549 405.491 195.706 398.525 203.062C391.624 210.354 382.151 214 370.107 214H327.138V71.2266ZM352.138 128.648H364.345C369.944 128.648 373.883 127.151 376.161 124.156C378.44 121.161 379.579 116.702 379.579 110.777C379.579 104.853 378.277 100.621 375.673 98.082C373.069 95.4779 368.967 94.1758 363.368 94.1758H352.138V128.648ZM352.138 150.816V190.758H365.517C371.051 190.758 375.152 189.065 377.822 185.68C380.556 182.294 381.923 177.053 381.923 169.957C381.923 157.197 376.324 150.816 365.126 150.816H352.138Z" fill="#0072bd"/>
    <rect transform="translate(170,0)" x="321.767" y="237" width="92" height="23" fill="#0072bd"/>
</svg>
