<?xml version="1.0" standalone="no"?>
<!DOCTYPE svg PUBLIC "-//W3C//DTD SVG 20010904//EN"
    "http://www.w3.org/TR/2001/REC-SVG-20010904/DTD/svg10.dtd">
<svg version="1.0" xmlns="http://www.w3.org/2000/svg"
     width="255" height="59pt">

    <g transform="translate(0.000000,62.000000) scale(0.0400000,-0.0400000)"
       fill="#000000" stroke="none">
        <path d="M0 535 l0 -355 30 0 30 0 0 83 1 82 47 54 48 53 79 -136 c76 -132 80
-136 112 -136 40 0 46 -16 -69 177 -43 72 -78 134 -78 137 0 3 36 45 80 93
l80 88 -32 3 c-35 4 -35 4 -195 -173 l-72 -80 -1 233 0 232 -30 0 -30 0 0
-355z"/>
        <path d="M3672 538 l3 -353 60 0 60 0 2 185 2 185 28 22 c19 15 42 23 69 23
60 0 64 -16 64 -235 l0 -185 60 0 60 0 0 208 c0 226 -6 254 -61 295 -41 30
-115 27 -172 -7 l-47 -27 -1 28 c0 15 -1 69 -2 118 l-2 90 -63 3 -62 3 2 -353z"/>
        <path d="M5810 633 c0 -251 1 -259 24 -308 50 -106 144 -164 263 -165 99 0
182 42 235 120 52 75 59 126 56 386 l-3 219 -287 3 -288 2 0 -257z m470 187
l0 -40 40 0 c29 0 40 -4 40 -15 0 -11 -11 -15 -39 -15 -40 0 -40 0 -43 -42 -4
-57 -26 -62 -30 -6 -3 43 -3 43 -45 46 -29 2 -43 8 -43 18 0 10 12 14 45 14
l45 0 0 40 c0 29 4 40 15 40 11 0 15 -11 15 -40z" fill="#ee1d23"/>
        <path d="M1483 843 c-9 -3 -13 -30 -13 -84 l0 -79 -41 0 c-36 0 -40 -2 -37
-22 2 -19 9 -23 41 -23 l37 0 1 -185 c0 -102 3 -196 5 -209 10 -55 68 -81 141
-64 31 7 39 14 41 35 3 25 3 25 -43 15 -77 -18 -79 -11 -83 213 l-3 190 28 1
c15 1 45 1 66 1 33 -1 37 1 37 23 0 24 -3 25 -65 25 l-65 0 0 85 c0 88 -4 96
-47 78z"/>
        <path d="M2850 695 c-65 -20 -102 -62 -108 -123 -8 -87 30 -131 155 -178 72
-27 103 -48 103 -71 0 -24 -47 -63 -77 -63 -29 0 -90 31 -110 57 -10 12 -17
11 -52 -13 -38 -25 -40 -29 -28 -48 8 -12 33 -34 56 -51 80 -56 227 -43 285
25 27 33 41 95 31 140 -9 41 -64 95 -112 110 -90 29 -133 53 -139 76 -4 14 -1
31 6 39 18 22 98 19 137 -5 l33 -20 35 31 c30 27 33 34 23 47 -38 45 -163 70
-238 47z"/>
        <path d="M3332 698 c-65 -14 -126 -77 -147 -152 -39 -133 1 -286 88 -344 69
-46 187 -41 252 10 23 18 65 86 65 105 0 5 -21 17 -47 26 -45 17 -49 17 -58 1
-31 -52 -58 -74 -90 -74 -66 0 -105 64 -105 172 0 99 35 158 94 158 51 0 65
-8 86 -51 l20 -38 47 21 c27 11 49 22 51 23 8 7 -23 64 -50 92 -47 48 -129 68
-206 51z"/>
        <path d="M581 691 c-40 -11 -77 -37 -105 -74 -19 -25 -19 -28 -3 -44 15 -15
19 -14 56 25 86 88 221 59 221 -48 l0 -37 -77 -16 c-142 -31 -217 -80 -233
-152 -22 -100 64 -182 177 -168 21 2 59 17 84 33 l47 28 6 -29 c5 -25 10 -29
32 -26 l26 3 -2 200 c-1 217 -7 248 -61 286 -29 22 -117 31 -168 19z m169
-311 l0 -80 -41 -30 c-53 -38 -100 -51 -141 -40 -49 15 -68 38 -68 85 0 59 36
90 150 126 99 32 100 31 100 -61z"/>
        <path d="M1123 691 c-34 -9 -50 -18 -95 -60 l-28 -25 0 37 c0 34 -2 37 -30 37
l-30 0 0 -244 c0 -154 4 -247 10 -251 6 -3 19 -3 30 0 19 6 20 15 20 185 l0
178 52 46 c55 48 90 61 137 51 62 -13 66 -26 69 -256 l3 -209 30 0 29 0 0 203
c0 173 -3 207 -18 236 -32 64 -101 92 -179 72z"/>
        <path d="M1861 691 c-104 -27 -161 -140 -147 -296 13 -149 84 -225 210 -225
138 1 207 90 207 268 0 78 -15 139 -47 187 -35 53 -144 85 -223 66z m125 -57
c55 -26 77 -74 82 -173 5 -102 -9 -160 -47 -203 -23 -26 -37 -32 -83 -36 -73
-6 -113 15 -139 73 -40 90 -33 242 13 301 41 51 113 67 174 38z"/>
        <path d="M2420 688 c-19 -5 -51 -23 -72 -40 l-38 -30 -1 24 c-1 12 -1 26 0 31
0 4 -14 7 -33 7 l-35 0 2 -247 2 -248 30 0 30 0 2 184 2 184 27 28 c44 46 105
73 146 65 70 -13 73 -23 76 -257 l3 -209 30 0 29 0 0 203 c0 240 -9 272 -79
300 -46 19 -70 20 -121 5z"/>
        <path d="M4151 623 c10 -38 43 -151 72 -253 l53 -185 52 -2 c40 -1 54 3 60 15
5 10 24 79 43 154 18 75 35 136 37 134 2 -3 30 -104 73 -268 l10 -38 54 0 54
0 20 68 c59 201 121 422 121 432 0 7 -20 10 -57 8 l-57 -3 -40 -147 c-22 -82
-41 -146 -44 -144 -2 3 -18 69 -36 148 l-31 143 -66 3 -66 3 -22 -93 c-11 -51
-26 -117 -33 -145 -6 -29 -14 -53 -17 -53 -3 0 -19 51 -35 113 -52 200 -38
177 -106 177 l-58 0 19 -67z"/>
        <path d="M4902 446 c86 -261 88 -277 43 -322 -18 -18 -35 -24 -70 -24 l-45 0
0 -50 0 -50 55 0 c84 0 131 31 173 115 16 33 192 555 192 570 0 3 -26 5 -59 5
l-58 0 -43 -145 c-24 -80 -46 -145 -49 -145 -3 0 -24 64 -47 143 l-41 142 -65
3 -66 3 80 -245z"/>
        <path d="M5280 645 l0 -44 110 -3 111 -3 -121 -162 c-115 -155 -121 -165 -118
-205 l3 -43 198 -3 197 -2 0 50 0 50 -115 0 c-63 0 -115 3 -115 7 0 3 52 75
115 159 107 143 115 157 115 199 l0 45 -190 0 -190 0 0 -45z"/>
    </g>
</svg>
