<svg width="107" height="66" viewBox="0 0 107 66" fill="none" xmlns="http://www.w3.org/2000/svg">
<path d="M8.78906 36.9375L10.3594 33.8203L15.5156 24.8906H22.125L15.5156 35.6016L22.5703 51H16.0312L11.3203 39.9609L8.88281 42.1641V51H2.64844V14.5312H8.88281V31.7109L8.60156 36.9375H8.78906ZM31.5703 51H25.3359V24.8906H31.5703V51ZM25.0781 18.0703C25.0781 17.0391 25.375 16.2266 25.9688 15.6328C26.5781 15.0234 27.4219 14.7188 28.5 14.7188C29.5156 14.7188 30.3281 15.0234 30.9375 15.6328C31.5469 16.2266 31.8516 17.0391 31.8516 18.0703C31.8516 19.1328 31.5391 19.9609 30.9141 20.5547C30.2891 21.1328 29.4844 21.4219 28.5 21.4219C27.4688 21.4219 26.6406 21.1328 26.0156 20.5547C25.3906 19.9609 25.0781 19.1328 25.0781 18.0703ZM80.5781 37.8984C80.5781 42.1797 79.6719 45.5156 77.8594 47.9062C76.0469 50.2812 73.5625 51.4688 70.4062 51.4688C68.4062 51.4688 66.6406 50.9219 65.1094 49.8281C63.5781 48.7344 62.3984 47.1641 61.5703 45.1172C60.7422 43.0547 60.3281 40.6484 60.3281 37.8984C60.3281 33.6641 61.2266 30.3594 63.0234 27.9844C64.8203 25.5938 67.3125 24.3984 70.5 24.3984C73.5781 24.3984 76.0234 25.6172 77.8359 28.0547C79.6641 30.4766 80.5781 33.7578 80.5781 37.8984ZM66.7031 37.8984C66.7031 40.6172 67 42.6719 67.5938 44.0625C68.1875 45.4531 69.1406 46.1484 70.4531 46.1484C72.9531 46.1484 74.2031 43.3984 74.2031 37.8984C74.2031 35.1641 73.8984 33.125 73.2891 31.7812C72.6953 30.4219 71.75 29.7422 70.4531 29.7422C69.1406 29.7422 68.1875 30.4219 67.5938 31.7812C67 33.125 66.7031 35.1641 66.7031 37.8984ZM97.9688 51V35.4375C97.9688 33.5469 97.7422 32.1172 97.2891 31.1484C96.8359 30.1797 96.1016 29.6953 95.0859 29.6953C93.7422 29.6953 92.7578 30.3672 92.1328 31.7109C91.5078 33.0391 91.1953 35.2891 91.1953 38.4609V51H84.9609V24.8906H89.9062L90.6562 28.2422H91.0547C91.6172 27.0391 92.4219 26.1016 93.4688 25.4297C94.5156 24.7422 95.7422 24.3984 97.1484 24.3984C99.5234 24.3984 101.297 25.2109 102.469 26.8359C103.656 28.4609 104.25 30.8359 104.25 33.9609V51H97.9688Z" fill="white"/>
<path d="M37.2891 16.7344H46.0312C49.5938 16.7344 52.1875 17.4297 53.8125 18.8203C55.4375 20.1953 56.25 22.3906 56.25 25.4062C56.25 27.3906 55.8203 29.0547 54.9609 30.3984C54.1016 31.7266 52.9297 32.5312 51.4453 32.8125V33.0469C53.3828 33.5312 54.7812 34.4375 55.6406 35.7656C56.5 37.0938 56.9297 38.8594 56.9297 41.0625C56.9297 44.1719 56.0938 46.6094 54.4219 48.375C52.7656 50.125 50.4922 51 47.6016 51H37.2891V16.7344ZM43.2891 30.5156H46.2188C47.5625 30.5156 48.5078 30.1562 49.0547 29.4375C49.6016 28.7188 49.875 27.6484 49.875 26.2266C49.875 24.8047 49.5625 23.7891 48.9375 23.1797C48.3125 22.5547 47.3281 22.2422 45.9844 22.2422H43.2891V30.5156ZM43.2891 35.8359V45.4219H46.5C47.8281 45.4219 48.8125 45.0156 49.4531 44.2031C50.1094 43.3906 50.4375 42.1328 50.4375 40.4297C50.4375 37.3672 49.0938 35.8359 46.4062 35.8359H43.2891Z" fill="#D50025"/>
<rect x="37" y="56" width="20" height="5" fill="#D50025"/>
</svg>
