<svg width="617" height="273" viewBox="0 0 617 273" fill="none" xmlns="http://www.w3.org/2000/svg">
<path d="M39.4286 104.306H8.25576L8.30227 173.028L109.265 242.062C125.983 227.956 133.298 206.882 133.298 196.433C133.298 191.036 133.298 167.873 133.298 167.873L39.4286 104.306ZM138.66 197.514C136.883 221.095 121.211 244.292 98.7452 254.079C77.708 264.32 48.4849 260.907 30.4072 246.695C13.689 233.667 4.42343 215.765 3.23987 195.458L3.27476 99.3595H138.557L138.66 197.514ZM48.4849 104.306L133.298 161.603V104.306H48.4849ZM8.29064 179.471V192.742C9.19576 215.939 22.1179 239.451 44.201 249.203C62.2082 258.573 88.2709 256.391 104.571 245.106L8.29064 179.471Z" fill="#231F20"/>
<path d="M47.6142 131.082C48.5999 131.082 49.3997 130.284 49.3997 129.296C49.3997 128.31 48.5999 127.512 47.6142 127.512C46.6283 127.512 45.8291 128.31 45.8291 129.296C45.8291 130.284 46.6283 131.082 47.6142 131.082ZM103.761 225.553C102.647 227.05 102.403 228.931 102.333 230.882C103.378 229.453 104.597 228.13 105.468 226.633C104.911 226.284 104.388 225.762 103.761 225.553ZM101.254 223.985C99.8261 225.378 100.069 227.434 99.8261 229.314L103.134 225.065C102.543 224.577 101.881 224.298 101.254 223.985ZM98.7453 222.244C97.3175 223.636 97.5616 225.727 97.3175 227.573L100.627 223.497C99.965 223.079 99.4075 222.522 98.7453 222.244ZM96.0635 220.537C94.9142 221.999 94.984 224.472 94.8102 225.866C95.9595 224.716 96.621 223.393 97.8052 222.244C98.2226 221.338 96.6566 221.06 96.0635 220.537ZM93.5562 218.969C92.3714 220.398 92.6149 222.906 92.1633 224.124C93.1724 222.767 94.4612 221.476 95.4369 220.049C94.88 219.561 94.2178 219.283 93.5562 218.969ZM71.612 206.117C69.5569 205.978 67.7816 206.848 66.2834 207.685L71.612 208.311V206.117ZM71.612 203.122C69.522 202.912 68.0252 204.061 66.2834 204.69L71.7871 205.315L71.612 203.122ZM66.5968 201.554C68.3734 201.797 70.15 202.46 71.9261 202.181C71.8912 201.519 72.0655 200.753 71.7871 200.162C69.6274 199.639 68.3385 201.101 66.5968 201.554ZM72.0997 197.026C70.0106 196.852 68.4425 197.827 66.7713 198.594C68.513 198.871 70.358 199.359 72.0997 199.22V197.026ZM66.91 195.458C68.5828 195.911 70.6721 195.876 72.24 196.086C72.1695 195.388 72.3789 194.622 72.0997 194.031C70.15 193.961 68.1293 194.902 66.91 195.458ZM41.8321 187.134C39.7421 186.715 38.2794 187.795 36.6766 188.561C38.2794 189.014 40.2996 188.981 41.8321 189.19V187.134ZM42.0064 184.173C39.8823 183.824 38.3841 184.941 36.6766 185.568C38.419 185.845 40.2647 186.368 42.0064 186.193V184.173ZM42.0064 181.039C39.9862 180.864 38.4532 181.84 36.816 182.605L42.0064 183.373V181.039ZM36.9905 179.61C38.8369 179.541 40.5432 180.411 42.3198 180.098C42.2506 179.402 42.4245 178.636 42.1453 178.044C40.1251 177.869 38.4881 178.914 36.9905 179.61ZM42.3198 175.082C40.2996 174.978 38.6973 175.744 36.9905 176.336C38.6973 176.685 40.509 176.893 42.3198 177.103V175.082ZM14.4203 147.495L17.241 151.711C17.8689 151.432 18.5996 151.015 18.9484 150.319C17.7287 148.612 16.0574 148.124 14.4203 147.495ZM16.4405 145.441C17.555 146.905 18.3909 148.612 19.7496 149.831L21.1424 148.577C20.167 146.766 18.077 146.313 16.4405 145.441ZM29.7801 144.5C26.053 147.322 22.4313 150.492 18.809 153.453C21.1424 157.179 23.8249 160.766 26.3328 164.424C27.0984 165.817 28.6307 166.758 30.0947 167.246C37.1999 168.638 44.6881 169.545 51.7235 170.694C51.2365 164.494 53.6048 157.005 48.1019 152.826L32.602 156.413C31.9404 156.656 31.2782 157.283 30.7213 157.215C31.9055 154.149 32.463 150.213 31.1742 147.009L29.7801 144.5ZM18.9484 143.561L21.9436 147.949L23.5108 146.382C22.4313 144.71 20.5158 144.361 18.9484 143.561ZM21.1424 141.54L24.1374 145.929C24.7997 145.756 25.2526 145.092 25.8451 144.676C24.8694 142.83 22.7794 142.411 21.1424 141.54ZM23.6497 139.486C24.5911 141.019 25.4612 142.689 26.785 143.875L28.2134 142.62C27.2029 140.635 25.0788 140.774 23.6497 139.486ZM22.3971 119.11C21.4557 120.084 21.1082 121.303 21.3169 122.732C21.5597 124.196 22.9539 125.378 24.1374 126.319L38.5585 136.211V134.643C34.692 131.544 30.6515 128.967 26.785 125.866C25.3223 124.961 25.1829 123.498 24.9043 122.105C25.1137 120.433 25.8798 118.692 27.5861 117.856C25.8451 117.82 23.7551 117.785 22.3971 119.11ZM44.9673 125.239C45.0364 124.543 45.559 123.845 46.2206 123.498L47.6489 123.673L54.5455 127.434L55.1722 128.373C55.5559 127.087 55.4854 125.449 57.0528 124.751C58.447 124.265 60.4664 124.229 61.5809 125.378C62.5913 126.423 63.183 127.852 62.696 129.314C62.3821 130.117 61.4769 130.848 60.8154 131.335C65.5516 132.589 69.5925 135.619 73.981 137.779C75.2001 138.51 75.4443 139.869 75.0607 141.052L74.434 141.854C74.9566 142.444 75.9657 142.55 76.6279 143.108L112.991 167.699C118.669 170.694 118.077 176.79 119.121 181.979C117.625 181.909 115.569 181.597 113.932 181.039C114.053 181.613 114.14 182.189 114.246 182.744L117.066 210.645C116.753 213.536 114.315 215.521 112.678 217.854L107.036 224.924L94.984 217.089C97.1081 214.441 99.861 211.899 103.448 212.073C105.259 211.934 107.071 212.281 108.602 212.387C106.687 211.689 104.527 210.854 103.448 208.763C99.8261 202.111 94.88 195.98 92.3023 188.875C91.1181 184.8 92.0929 180.952 94.0091 177.538C93.6952 177.434 93.434 177.573 92.9289 177.416C89.2019 176.893 85.5103 175.919 81.8182 175.848L90.1076 180.725C88.3659 186.856 90.8047 192.811 94.044 197.652L89.167 209.251C88.4363 210.75 86.4504 210.331 85.0924 210.192L73.981 208.624C73.6329 203.818 74.5036 199.116 74.434 194.204C78.4045 195.284 82.1316 198.21 84.4657 201.866V201.241L73.981 184.312C72.1346 180.933 73.642 177.295 75.7305 174.543C75.7305 174.543 73.3803 174.639 72.2044 173.845C70.968 175.17 59.2467 191.07 59.2467 191.07C58.2725 191.872 56.6354 191.523 55.4854 191.384L44.0259 189.641L44.6539 175.221C48.5192 176.266 52.4206 179.194 54.371 182.744C53.2567 174.908 54.5106 166.235 53.9182 157.981C53.2218 155.717 52.3159 153.522 50.4702 151.711L31.1742 138.091V133.528C33.96 135.305 36.6424 139.102 40.1251 137.291C41.3442 136.246 41.5884 134.61 41.2054 133.077L40.5781 131.962L31.3473 125.553C30.7213 122.767 32.0102 119.214 30.2336 116.915C35.2146 119.492 40.0902 122.419 44.9673 125.239Z" fill="#231F20"/>
<path d="M106.987 60.1015C106.987 62.235 105.163 63.9286 103.138 63.9286C101.048 63.9286 99.277 62.2648 99.277 60.0668C99.277 57.9763 101.019 56.2099 103.151 56.2099C105.372 56.2099 106.987 58.1202 106.987 60.1015ZM141.518 25.5538C134.97 29.6637 127.933 34.5409 123.336 41.3664C121.838 43.5611 121.525 47.0095 122.396 49.3778C120.829 49.5515 119.54 50.3883 118.32 51.3972C114.837 54.6024 114.14 59.5491 115.047 63.9368C115.673 67.3504 118.843 71.2519 122.396 71.9482C120.306 73.3755 117.519 73.5855 114.872 73.2018C111.737 72.7487 108.986 70.1025 107.349 67.3868C109.927 66.1663 111.981 63.31 112.052 60.3496C112.191 57.3892 110.554 55.0208 108.464 53.1404C105.434 50.9804 101.044 51.1541 97.9441 52.965C95.0885 55.0208 93.8346 58.016 94.0439 61.4296C94.3914 63.7979 95.8541 66.0968 98.1186 67.2462C97.2483 69.0225 95.4019 70.8335 93.7305 72.2624C90.3867 74.2471 85.2668 74.7002 81.9571 72.4014C83.2809 72.1566 84.5 71.6356 85.719 71.1477C89.5856 68.6735 91.0476 64.6695 91.2219 60.3496C91.3273 55.8213 88.6095 51.503 84.4657 49.6921C83.5941 49.3431 82.6193 49.3083 81.8182 48.8899C82.6891 47.671 82.8628 46.1395 83.2111 44.6758C83.3158 36.595 74.538 32.032 70.6721 25.6944V25.868C67.4677 31.683 60.5013 35.1677 58.62 41.5418C57.9933 44.049 58.3074 46.94 59.5614 49.0636C58.2376 49.3431 57.0186 49.8657 55.7995 50.3189C51.6195 52.9998 49.8778 57.4239 50.2957 62.0564C50.644 66.0621 52.8728 70.2778 56.8796 71.7745C57.715 72.0176 58.5858 72.2277 59.3869 72.575C57.8197 73.5161 56.0423 73.9676 54.0576 73.9676C49.3209 74.5613 45.4899 71.0782 43.3992 67.2462C46.1166 65.9926 47.1262 63.1711 47.4746 60.4902C47.5094 57.4934 45.9427 55.0208 43.5744 53.1404C40.6472 51.4319 36.294 50.9093 33.3682 52.965C30.8958 54.9861 29.0842 57.5281 29.4667 60.8028C29.5372 63.659 31.6619 66.3399 33.9948 67.5588C32.9154 69.1961 31.4876 71.0071 29.7801 72.0871C26.6809 73.655 21.9093 74.2471 19.1229 71.9482C20.6896 71.3908 22.2219 70.7293 23.5108 69.4409C27.2727 65.8884 27.5512 59.5491 25.7055 55.0208C24.5911 52.3382 21.7691 49.9004 18.9484 49.3778C20.4815 46.1395 18.9833 42.6201 17.241 39.9739C12.2257 34.1225 5.7472 28.9326 0 25.868C2.36839 34.8188 3.13524 46.0337 3.13524 57.7381V94.5186H138.557V62.0564C138.453 49.4125 138.801 36.6992 141.518 25.5538ZM77.5692 47.9505C76.8721 49.9352 75.7228 51.8851 73.981 53.2793C75.7228 52.8956 78.0207 52.0257 80.0765 52.8261C82.6891 53.5224 85.336 56.1008 85.8935 58.7817C86.4155 62.2648 85.3709 65.6089 82.4448 67.6994C80.2852 69.1962 77.0464 69.5799 74.6076 68.4999L72.5534 67.2462C73.18 71.2866 77.0117 74.9433 80.7032 76.9644C85.1964 79.1574 91.6058 78.9838 95.9246 76.4765C98.8847 74.9086 101.497 71.7745 102.821 68.8141C104.319 72.9587 109.09 77.2422 113.932 77.9038C119.749 78.5323 125.322 76.9296 128.665 71.7745C129.397 70.4167 130.372 69.1614 130.859 67.6994C129.328 68.3957 126.993 69.0572 125.078 68.3262C122.535 67.6647 120.271 64.9126 119.888 62.3706C119.227 58.7817 120.689 55.4029 123.824 53.453C125.322 52.8261 127.342 51.9545 128.979 52.965L129.153 52.8261C127.063 51.0499 126.575 48.4368 127.097 45.7558C128.352 41.3317 132.636 38.5466 135.562 34.784C132.914 41.2275 133.541 49.0288 133.228 56.4134V89.504H8.15049V54.5677C7.94181 46.94 7.52383 38.4407 5.78208 34.9577C9.64865 39.5207 15.8132 43.318 14.4203 49.831C13.689 50.9093 13.4106 52.1298 12.2257 52.965C14.0366 52.3382 16.6841 52.6525 18.3211 53.9061C21.1773 56.0661 22.2219 59.6186 21.4557 62.9974C20.7594 65.5394 18.3211 68.1873 15.6737 68.6388C13.8279 68.8141 12.2257 68.4999 10.798 67.6994C11.1462 69.4062 12.3653 71.1477 13.4797 72.7156C16.6492 77.2422 21.7342 78.2528 26.7849 78.0444C31.8008 77.4506 36.8858 73.7592 38.5585 68.8141C41.0658 74.8739 47.5095 78.7059 54.0576 78.6712C60.71 78.567 66.91 73.7244 69.1047 67.5588C69.1396 67.4215 69.0356 67.3504 68.9651 67.2462C66.9443 68.7446 64.437 69.5799 61.7552 68.953C58.9341 68.6041 56.4261 65.7478 55.625 63.1711C54.8588 59.7575 55.8693 56.1703 58.9341 54.0798C61.2675 52.5119 64.8905 52.3035 67.3979 53.2793C64.0197 50.5967 62.9047 46.591 63.9493 42.4812C64.7853 38.7202 68.8611 36.2808 70.6721 32.9036C74.2595 37.2566 79.4498 41.6096 77.5692 47.9505ZM42.2893 60.1445C42.2893 62.2797 40.4649 63.9716 38.4403 63.9716C36.3503 63.9716 34.5788 62.3094 34.5788 60.1098C34.5788 58.0193 36.3199 56.2529 38.4532 56.2529C40.6743 56.2529 42.2893 58.1632 42.2893 60.1445Z" fill="#231F20"/>
<path d="M208.388 155.406L214.931 142.418L236.415 105.211H263.954L236.415 149.84L265.81 214H238.564L218.935 168.004L208.779 177.184V214H182.802V62.0469H208.779V133.629L207.607 155.406H208.388ZM303.31 214H277.333V105.211H303.31V214ZM276.259 76.793C276.259 72.4961 277.496 69.1107 279.97 66.6367C282.509 64.0977 286.025 62.8281 290.517 62.8281C294.749 62.8281 298.134 64.0977 300.673 66.6367C303.212 69.1107 304.482 72.4961 304.482 76.793C304.482 81.2201 303.18 84.6706 300.575 87.1445C297.971 89.5534 294.618 90.7578 290.517 90.7578C286.22 90.7578 282.769 89.5534 280.165 87.1445C277.561 84.6706 276.259 81.2201 276.259 76.793ZM507.509 159.41C507.509 177.249 503.733 191.148 496.181 201.109C488.629 211.005 478.277 215.953 465.126 215.953C456.793 215.953 449.436 213.674 443.056 209.117C436.676 204.56 431.76 198.017 428.31 189.488C424.859 180.895 423.134 170.868 423.134 159.41C423.134 141.767 426.877 127.997 434.364 118.102C441.851 108.141 452.236 103.16 465.517 103.16C478.342 103.16 488.531 108.238 496.083 118.395C503.7 128.486 507.509 142.158 507.509 159.41ZM449.697 159.41C449.697 170.738 450.933 179.299 453.407 185.094C455.881 190.888 459.853 193.785 465.322 193.785C475.738 193.785 480.947 182.327 480.947 159.41C480.947 148.017 479.677 139.521 477.138 133.922C474.664 128.258 470.725 125.426 465.322 125.426C459.853 125.426 455.881 128.258 453.407 133.922C450.933 139.521 449.697 148.017 449.697 159.41ZM579.97 214V149.156C579.97 141.279 579.026 135.322 577.138 131.285C575.25 127.249 572.19 125.23 567.958 125.23C562.359 125.23 558.258 128.03 555.654 133.629C553.049 139.163 551.747 148.538 551.747 161.754V214H525.771V105.211H546.376L549.501 119.176H551.161C553.505 114.163 556.858 110.257 561.22 107.457C565.582 104.592 570.693 103.16 576.552 103.16C586.448 103.16 593.837 106.546 598.72 113.316C603.668 120.087 606.142 129.983 606.142 143.004V214H579.97Z" fill="#231F20"/>
<path d="M327.138 71.2266H363.564C378.407 71.2266 389.215 74.1237 395.986 79.918C402.756 85.6471 406.142 94.7943 406.142 107.359C406.142 115.628 404.351 122.561 400.771 128.16C397.19 133.694 392.307 137.047 386.122 138.219V139.195C394.195 141.214 400.022 144.99 403.603 150.523C407.183 156.057 408.974 163.414 408.974 172.594C408.974 185.549 405.491 195.706 398.525 203.062C391.624 210.354 382.151 214 370.107 214H327.138V71.2266ZM352.138 128.648H364.345C369.944 128.648 373.883 127.151 376.161 124.156C378.44 121.161 379.579 116.702 379.579 110.777C379.579 104.853 378.277 100.621 375.673 98.082C373.069 95.4779 368.967 94.1758 363.368 94.1758H352.138V128.648ZM352.138 150.816V190.758H365.517C371.051 190.758 375.152 189.065 377.822 185.68C380.556 182.294 381.923 177.053 381.923 169.957C381.923 157.197 376.324 150.816 365.126 150.816H352.138Z" fill="#D50025"/>
<rect x="321.767" y="237" width="92" height="23" fill="#D50025"/>
</svg>
