<svg width="567" height="273" viewBox="0 0 567 273" fill="none" xmlns="http://www.w3.org/2000/svg">
<path d="M25.563 113.058H5.35251L5.38266 157.613L70.8403 202.37C81.6793 193.225 86.4221 179.562 86.4221 172.787C86.4221 169.288 86.4221 154.271 86.4221 154.271L25.563 113.058ZM89.8982 173.488C88.7462 188.776 78.5858 203.816 64.0201 210.161C50.3809 216.801 31.4345 214.588 19.7141 205.374C8.87506 196.928 2.86787 185.321 2.10052 172.155L2.12315 109.851H89.8315L89.8982 173.488ZM31.4345 113.058L86.4221 150.206V113.058H31.4345ZM5.37513 161.79V170.394C5.96194 185.434 14.3398 200.677 28.6571 207C40.3318 213.075 57.2292 211.66 67.7973 204.343L5.37513 161.79Z" fill="#231F20"/>
<path d="M30.87 130.418C31.5091 130.418 32.0276 129.9 32.0276 129.26C32.0276 128.621 31.5091 128.103 30.87 128.103C30.2308 128.103 29.7127 128.621 29.7127 129.26C29.7127 129.9 30.2308 130.418 30.87 130.418ZM67.2721 191.667C66.5496 192.637 66.3917 193.857 66.3464 195.122C67.0237 194.195 67.8141 193.338 68.3787 192.367C68.0177 192.141 67.6788 191.802 67.2721 191.667ZM65.6466 190.65C64.7209 191.553 64.8784 192.886 64.7209 194.105L66.8658 191.351C66.4822 191.034 66.0528 190.853 65.6466 190.65ZM64.0201 189.521C63.0945 190.424 63.2527 191.779 63.0945 192.976L65.2398 190.334C64.8109 190.063 64.4495 189.702 64.0201 189.521ZM62.2815 188.415C61.5363 189.363 61.5816 190.966 61.4689 191.87C62.214 191.124 62.6429 190.267 63.4107 189.521C63.6813 188.934 62.666 188.754 62.2815 188.415ZM60.6559 187.398C59.8877 188.325 60.0456 189.95 59.7528 190.74C60.407 189.86 61.2427 189.024 61.8752 188.099C61.5142 187.782 61.0848 187.602 60.6559 187.398ZM46.4287 179.066C45.0963 178.976 43.9453 179.54 42.9739 180.082L46.4287 180.488V179.066ZM46.4287 177.124C45.0736 176.988 44.1032 177.733 42.9739 178.14L46.5422 178.546L46.4287 177.124ZM43.1771 176.107C44.329 176.265 45.4808 176.695 46.6323 176.514C46.6097 176.085 46.7227 175.588 46.5422 175.205C45.1419 174.866 44.3063 175.814 43.1771 176.107ZM46.7449 173.172C45.3904 173.059 44.3738 173.691 43.2903 174.188C44.4195 174.368 45.6157 174.684 46.7449 174.594V173.172ZM43.3802 172.155C44.4647 172.448 45.8193 172.426 46.8358 172.562C46.7901 172.11 46.9259 171.613 46.7449 171.23C45.4808 171.184 44.1707 171.795 43.3802 172.155ZM27.1212 166.758C25.7662 166.487 24.8179 167.187 23.7788 167.684C24.8179 167.977 26.1277 167.956 27.1212 168.091V166.758ZM27.2343 164.839C25.8572 164.613 24.8858 165.336 23.7788 165.743C24.9084 165.923 26.1051 166.262 27.2343 166.148V164.839ZM27.2343 162.807C25.9245 162.693 24.9306 163.326 23.8692 163.822L27.2343 164.32V162.807ZM23.9823 161.88C25.1794 161.835 26.2856 162.399 27.4375 162.197C27.3926 161.745 27.5053 161.249 27.3243 160.865C26.0146 160.751 24.9532 161.429 23.9823 161.88ZM27.4375 158.945C26.1277 158.877 25.0889 159.373 23.9823 159.757C25.0889 159.984 26.2634 160.119 27.4375 160.255V158.945ZM9.34924 141.059L11.1779 143.792C11.5851 143.611 12.0588 143.341 12.285 142.89C11.4942 141.783 10.4106 141.467 9.34924 141.059ZM10.659 139.727C11.3816 140.676 11.9235 141.783 12.8044 142.573L13.7074 141.76C13.075 140.586 11.72 140.293 10.659 139.727ZM19.3075 139.117C16.8911 140.947 14.543 143.002 12.1946 144.922C13.7074 147.337 15.4465 149.663 17.0725 152.035C17.5689 152.938 18.5623 153.548 19.5115 153.864C24.118 154.767 28.9729 155.355 33.5342 156.1C33.2185 152.08 34.7539 147.225 31.1862 144.515L21.137 146.841C20.7081 146.998 20.2788 147.405 19.9178 147.361C20.6855 145.373 21.047 142.821 20.2114 140.744L19.3075 139.117ZM12.285 138.508L14.2268 141.353L15.2429 140.338C14.543 139.254 13.3011 139.027 12.285 138.508ZM13.7074 137.198L15.6492 140.044C16.0785 139.931 16.3722 139.501 16.7563 139.231C16.1238 138.034 14.7688 137.763 13.7074 137.198ZM15.333 135.866C15.9433 136.86 16.5074 137.943 17.3657 138.712L18.2918 137.898C17.6366 136.611 16.2595 136.702 15.333 135.866ZM14.5208 122.656C13.9105 123.287 13.6852 124.078 13.8205 125.004C13.978 125.953 14.8819 126.72 15.6492 127.33L24.9989 133.743V132.727C22.4921 130.717 19.8725 129.047 17.3657 127.036C16.4174 126.45 16.327 125.501 16.1464 124.598C16.2821 123.514 16.7788 122.385 17.8851 121.843C16.7563 121.82 15.4013 121.797 14.5208 122.656ZM29.1539 126.63C29.1988 126.178 29.5376 125.726 29.9665 125.501L30.8925 125.614L35.3639 128.053L35.7701 128.662C36.0189 127.827 35.9732 126.766 36.9894 126.313C37.8933 125.998 39.2026 125.975 39.9252 126.72C40.5802 127.397 40.9639 128.324 40.6481 129.272C40.4446 129.792 39.8577 130.266 39.4288 130.582C42.4995 131.395 45.1193 133.359 47.9646 134.76C48.7549 135.234 48.9133 136.115 48.6646 136.882L48.2583 137.402C48.5971 137.785 49.2513 137.853 49.6806 138.214L73.2562 154.158C76.9372 156.1 76.5534 160.052 77.2308 163.416C76.2603 163.371 74.9274 163.168 73.8665 162.807C73.9448 163.179 74.0014 163.552 74.0696 163.912L75.8984 182.001C75.6953 183.876 74.1144 185.162 73.0535 186.675L69.3953 191.259L61.5816 186.179C62.9587 184.462 64.7435 182.814 67.0689 182.927C68.2434 182.837 69.4179 183.062 70.411 183.131C69.1691 182.678 67.7689 182.137 67.0689 180.781C64.7209 176.469 61.5142 172.494 59.8429 167.887C59.0752 165.245 59.7072 162.75 60.9495 160.537C60.746 160.469 60.5767 160.559 60.2492 160.458C57.8329 160.119 55.4394 159.487 53.0457 159.441L58.42 162.603C57.2908 166.578 58.872 170.439 60.9721 173.578L57.8102 181.097C57.3365 182.069 56.0489 181.798 55.1685 181.708L47.9646 180.691C47.7389 177.575 48.3034 174.527 48.2583 171.342C50.8325 172.042 53.2489 173.939 54.7622 176.31V175.904L47.9646 164.929C46.7675 162.738 47.7448 160.379 49.0988 158.595C49.0988 158.595 47.5751 158.657 46.8128 158.143C46.0111 159.001 38.4118 169.31 38.4118 169.31C37.7802 169.83 36.7188 169.604 35.9732 169.514L28.5436 168.384L28.9507 159.035C31.4567 159.712 33.9862 161.61 35.2507 163.912C34.5282 158.832 35.3412 153.209 34.9571 147.857C34.5056 146.389 33.9183 144.967 32.7217 143.792L20.2114 134.962V132.004C22.0175 133.156 23.7566 135.617 26.0146 134.443C26.8049 133.766 26.9633 132.705 26.715 131.711L26.3083 130.988L20.3236 126.833C19.9178 125.027 20.7534 122.723 19.6016 121.233C22.8309 122.904 25.9919 124.802 29.1539 126.63Z" fill="#231F20"/>
<path d="M69.3639 84.3986C69.3639 85.7818 68.1809 86.8798 66.8683 86.8798C65.5133 86.8798 64.3649 85.8011 64.3649 84.3761C64.3649 83.0207 65.4941 81.8755 66.8766 81.8755C68.3167 81.8755 69.3639 83.114 69.3639 84.3986ZM91.7516 62C87.5061 64.6646 82.9439 67.8267 79.9633 72.2519C78.9921 73.6748 78.7889 75.9105 79.354 77.446C78.3378 77.5586 77.5021 78.1012 76.7113 78.7552C74.4533 80.8333 74.0014 84.0404 74.589 86.8852C74.9953 89.0983 77.0502 91.6278 79.354 92.0792C77.9989 93.0046 76.1919 93.1407 74.4759 92.892C72.4432 92.5982 70.6598 90.8826 69.5984 89.1219C71.2696 88.3306 72.6016 86.4788 72.6473 84.5594C72.7373 82.6401 71.6759 81.1046 70.3209 79.8854C68.3565 78.485 65.5108 78.5976 63.5007 79.7717C61.6493 81.1046 60.8364 83.0464 60.9721 85.2596C61.1974 86.7951 62.1457 88.2855 63.6138 89.0307C63.0496 90.1824 61.8525 91.3565 60.7689 92.2829C58.601 93.5697 55.2816 93.8635 53.1358 92.373C53.994 92.2143 54.7844 91.8765 55.5748 91.5602C58.0816 89.9561 59.0295 87.3602 59.1425 84.5594C59.2108 81.6235 57.4488 78.8239 54.7622 77.6497C54.1971 77.4235 53.5651 77.401 53.0457 77.1297C53.6104 76.3394 53.723 75.3465 53.9488 74.3975C54.0166 69.1585 48.3257 66.2001 45.8193 62.0912V62.2038C43.7418 65.9738 39.2252 68.2331 38.0055 72.3656C37.5992 73.9912 37.8028 75.8655 38.6158 77.2423C37.7576 77.4235 36.9672 77.7623 36.1768 78.0561C33.4668 79.7943 32.3376 82.6626 32.6085 85.666C32.8344 88.263 34.2794 90.9962 36.8771 91.9666C37.4187 92.1242 37.9833 92.2604 38.5027 92.4856C37.4866 93.0957 36.3342 93.3884 35.0475 93.3884C31.9766 93.7734 29.4928 91.5152 28.1373 89.0307C29.899 88.218 30.5537 86.3887 30.7795 84.6505C30.8021 82.7076 29.7863 81.1046 28.2509 79.8854C26.3531 78.7778 23.5308 78.4389 21.6338 79.7717C20.0309 81.082 18.8563 82.7301 19.1043 84.8532C19.15 86.705 20.5276 88.4431 22.0401 89.2334C21.3402 90.2949 20.4145 91.4691 19.3075 92.1693C17.2982 93.1858 14.2046 93.5697 12.3981 92.0792C13.4138 91.7178 14.4073 91.2889 15.2429 90.4536C17.6819 88.1504 17.8624 84.0404 16.6658 81.1046C15.9433 79.3654 14.1137 77.7848 12.2849 77.446C13.2789 75.3465 12.3076 73.0647 11.1779 71.3491C7.92639 67.5554 3.72612 64.1907 0 62.2038C1.53552 68.0069 2.03269 75.2779 2.03269 82.8663V106.712H89.8315V85.666C89.7641 77.4685 89.9894 69.226 91.7516 62ZM50.291 76.5206C49.839 77.8074 49.0939 79.0716 47.9646 79.9755C49.0939 79.7267 50.5837 79.1627 51.9165 79.6817C53.6104 80.1331 55.3264 81.8048 55.6879 83.5429C56.0263 85.8011 55.349 87.9692 53.452 89.3246C52.0518 90.295 49.952 90.5437 48.3708 89.8435L47.039 89.0307C47.4453 91.6503 49.9295 94.0211 52.3228 95.3314C55.2359 96.7532 59.3914 96.6406 62.1914 95.0151C64.1105 93.9986 65.8044 91.9666 66.6626 90.0473C67.634 92.7344 70.7271 95.5115 73.8665 95.9404C77.6379 96.3479 81.2509 95.3089 83.4185 91.9666C83.8926 91.0863 84.5251 90.2724 84.8408 89.3246C83.8478 89.776 82.3344 90.2049 81.0925 89.7309C79.4439 89.302 77.9763 87.5178 77.728 85.8697C77.2991 83.5429 78.2468 81.3523 80.2795 80.0881C81.2509 79.6817 82.5602 79.1166 83.6216 79.7717L83.7347 79.6817C82.3797 78.5301 82.0635 76.8359 82.4019 75.0977C83.2153 72.2294 85.9928 70.4237 87.8897 67.9843C86.1732 72.1619 86.5795 77.2197 86.3764 82.0074V103.461H5.28426V80.8108C5.14896 75.8655 4.87797 70.3551 3.74874 68.0969C6.25557 71.0553 10.2523 73.5172 9.34923 77.7398C8.87508 78.4389 8.69456 79.2302 7.92639 79.7717C9.10043 79.3654 10.8169 79.5691 11.8782 80.3819C13.73 81.7822 14.4073 84.0855 13.9105 86.2761C13.4591 87.9242 11.8782 89.6409 10.1618 89.9336C8.96514 90.0473 7.92639 89.8435 7.00072 89.3246C7.22648 90.4311 8.01685 91.5602 8.73938 92.5767C10.7943 95.5115 14.0911 96.1667 17.3657 96.0316C20.6176 95.6466 23.9144 93.2533 24.9989 90.0473C26.6245 93.976 30.8021 96.4605 35.0475 96.438C39.3605 96.3704 43.3802 93.2308 44.8031 89.2334C44.8257 89.1444 44.7583 89.0983 44.7126 89.0307C43.4024 90.0022 41.7768 90.5437 40.0382 90.1373C38.2091 89.9111 36.5831 88.0593 36.0637 86.3887C35.5669 84.1755 36.2221 81.8498 38.2091 80.4944C39.722 79.4779 42.0709 79.3428 43.6965 79.9755C41.5063 78.2363 40.7834 75.6392 41.4606 72.9747C42.0027 70.5363 44.6452 68.9547 45.8193 66.7652C48.1451 69.5874 51.5102 72.4096 50.291 76.5206ZM27.4177 84.4264C27.4177 85.8107 26.2349 86.9077 24.9222 86.9077C23.5672 86.9077 22.4187 85.83 22.4187 84.4039C22.4187 83.0486 23.5475 81.9034 24.9306 81.9034C26.3706 81.9034 27.4177 83.1419 27.4177 84.4264Z" fill="#231F20"/>
<path d="M158.621 155.406L165.164 142.418L186.648 105.211H214.187L186.648 149.84L216.043 214H188.797L169.168 168.004L159.012 177.184V214H133.035V62.0469H159.012V133.629L157.84 155.406H158.621ZM253.543 214H227.566V105.211H253.543V214ZM226.492 76.793C226.492 72.4961 227.729 69.1107 230.203 66.6367C232.742 64.0977 236.258 62.8281 240.75 62.8281C244.982 62.8281 248.367 64.0977 250.906 66.6367C253.445 69.1107 254.715 72.4961 254.715 76.793C254.715 81.2201 253.413 84.6706 250.809 87.1445C248.204 89.5534 244.852 90.7578 240.75 90.7578C236.453 90.7578 233.003 89.5534 230.398 87.1445C227.794 84.6706 226.492 81.2201 226.492 76.793ZM457.742 159.41C457.742 177.249 453.966 191.148 446.414 201.109C438.862 211.005 428.51 215.953 415.359 215.953C407.026 215.953 399.669 213.674 393.289 209.117C386.909 204.56 381.993 198.017 378.543 189.488C375.092 180.895 373.367 170.868 373.367 159.41C373.367 141.767 377.111 127.997 384.598 118.102C392.085 108.141 402.469 103.16 415.75 103.16C428.575 103.16 438.764 108.238 446.316 118.395C453.934 128.486 457.742 142.158 457.742 159.41ZM399.93 159.41C399.93 170.738 401.167 179.299 403.641 185.094C406.115 190.888 410.086 193.785 415.555 193.785C425.971 193.785 431.18 182.327 431.18 159.41C431.18 148.017 429.91 139.521 427.371 133.922C424.897 128.258 420.958 125.426 415.555 125.426C410.086 125.426 406.115 128.258 403.641 133.922C401.167 139.521 399.93 148.017 399.93 159.41ZM530.203 214V149.156C530.203 141.279 529.259 135.322 527.371 131.285C525.483 127.249 522.423 125.23 518.191 125.23C512.592 125.23 508.491 128.03 505.887 133.629C503.282 139.163 501.98 148.538 501.98 161.754V214H476.004V105.211H496.609L499.734 119.176H501.394C503.738 114.163 507.091 110.257 511.453 107.457C515.815 104.592 520.926 103.16 526.785 103.16C536.681 103.16 544.07 106.546 548.953 113.316C553.901 120.087 556.375 129.983 556.375 143.004V214H530.203Z" fill="#231F20"/>
<path d="M277.371 71.2266H313.797C328.641 71.2266 339.448 74.1237 346.219 79.918C352.99 85.6471 356.375 94.7943 356.375 107.359C356.375 115.628 354.585 122.561 351.004 128.16C347.423 133.694 342.54 137.047 336.355 138.219V139.195C344.428 141.214 350.255 144.99 353.836 150.523C357.417 156.057 359.207 163.414 359.207 172.594C359.207 185.549 355.724 195.706 348.758 203.062C341.857 210.354 332.384 214 320.34 214H277.371V71.2266ZM302.371 128.648H314.578C320.177 128.648 324.116 127.151 326.394 124.156C328.673 121.161 329.812 116.702 329.812 110.777C329.812 104.853 328.51 100.621 325.906 98.082C323.302 95.4779 319.2 94.1758 313.602 94.1758H302.371V128.648ZM302.371 150.816V190.758H315.75C321.284 190.758 325.385 189.065 328.055 185.68C330.789 182.294 332.156 177.053 332.156 169.957C332.156 157.197 326.557 150.816 315.359 150.816H302.371Z" fill="#D50025"/>
<rect x="272" y="237" width="92" height="23" fill="#D50025"/>
</svg>
